<?xml version="1.0" encoding="UTF-8" standalone="no"?>
<!-- Created with Inkscape (http://www.inkscape.org/) -->

<svg
   xmlns:dc="http://purl.org/dc/elements/1.1/"
   xmlns:cc="http://creativecommons.org/ns#"
   xmlns:rdf="http://www.w3.org/1999/02/22-rdf-syntax-ns#"
   xmlns:svg="http://www.w3.org/2000/svg"
   xmlns="http://www.w3.org/2000/svg"
   xmlns:xlink="http://www.w3.org/1999/xlink"
   xmlns:sodipodi="http://sodipodi.sourceforge.net/DTD/sodipodi-0.dtd"
   xmlns:inkscape="http://www.inkscape.org/namespaces/inkscape"
   width="744.09448819"
   height="1052.3622047"
   id="svg2"
   version="1.1"
   inkscape:version="0.47 r22583"
   sodipodi:docname="mutant-logo.svg">
  <defs
     id="defs4">
    <marker
       inkscape:stockid="Arrow1Sstart"
       orient="auto"
       refY="0.0"
       refX="0.0"
       id="Arrow1Sstart"
       style="overflow:visible">
      <path
         id="path3885"
         d="M 0.0,0.0 L 5.0,-5.0 L -12.5,0.0 L 5.0,5.0 L 0.0,0.0 z "
         style="fill-rule:evenodd;stroke:#000000;stroke-width:1.0pt;marker-start:none"
         transform="scale(0.2) translate(6,0)" />
    </marker>
    <inkscape:perspective
       sodipodi:type="inkscape:persp3d"
       inkscape:vp_x="0 : 526.18109 : 1"
       inkscape:vp_y="0 : 1000 : 0"
       inkscape:vp_z="744.09448 : 526.18109 : 1"
       inkscape:persp3d-origin="372.04724 : 350.78739 : 1"
       id="perspective10" />
    <inkscape:perspective
       id="perspective3669"
       inkscape:persp3d-origin="0.5 : 0.33333333 : 1"
       inkscape:vp_z="1 : 0.5 : 1"
       inkscape:vp_y="0 : 1000 : 0"
       inkscape:vp_x="0 : 0.5 : 1"
       sodipodi:type="inkscape:persp3d" />
    <inkscape:perspective
       id="perspective3740"
       inkscape:persp3d-origin="0.5 : 0.33333333 : 1"
       inkscape:vp_z="1 : 0.5 : 1"
       inkscape:vp_y="0 : 1000 : 0"
       inkscape:vp_x="0 : 0.5 : 1"
       sodipodi:type="inkscape:persp3d" />
  </defs>
  <sodipodi:namedview
     id="base"
     pagecolor="#ffffff"
     bordercolor="#666666"
     borderopacity="0.0"
     inkscape:pageopacity="0.0"
     inkscape:pageshadow="0"
     inkscape:zoom="0.8117387"
     inkscape:cx="84.989072"
     inkscape:cy="604.68037"
     inkscape:document-units="px"
     inkscape:current-layer="layer1"
     showgrid="false"
     inkscape:snap-smooth-nodes="true"
     inkscape:object-paths="true"
     inkscape:snap-nodes="false"
     inkscape:window-width="1440"
     inkscape:window-height="793"
     inkscape:window-x="0"
     inkscape:window-y="0"
     inkscape:window-maximized="1" />
  <metadata
     id="metadata7">
    <rdf:RDF>
      <cc:Work
         rdf:about="">
        <dc:format>image/svg+xml</dc:format>
        <dc:type
           rdf:resource="http://purl.org/dc/dcmitype/StillImage" />
        <dc:title />
      </cc:Work>
    </rdf:RDF>
  </metadata>
  <g
     inkscape:label="Layer 1"
     inkscape:groupmode="layer"
     id="layer1">
    <path
       style="fill:none;stroke:#000000;stroke-width:0.1;stroke-linecap:butt;stroke-linejoin:miter;stroke-miterlimit:4;stroke-opacity:1;stroke-dasharray:none"
       d="m 132.65649,494.66625 c -23.95584,18.59913 -21.53239,67.40583 13.77681,70.79368 44.53856,8.88903 90.55272,2.71749 134.8287,-4.2894 58.67476,-16.60527 121.60186,-39.96741 182.5666,-20.08438 33.50546,10.57786 64.02401,34.06321 100.8997,30.82549 29.89651,-0.0403 59.87001,0.81346 89.66946,0.84487 35.78254,1.10309 37.96385,-40.03306 14.99334,-57.75431 -21.28472,-18.4071 -50.75843,-22.53031 -74.76576,-36.49417 -21.96406,-8.10797 -45.79509,-7.85142 -68.63414,-11.98926 -3.08445,-23.48206 23.24875,-36.32724 34.55483,-54.04886 12.01944,-13.65268 41.4867,-44.45453 7.20479,-50.18926 -23.27567,1.29381 -44.34509,13.37489 -65.96778,20.37038 -23.28822,-5.64298 -12.80934,-41.70685 -32.45172,-56.30598 -40.73726,-52.37835 -97.52382,-91.25551 -156.96899,-121.1699 -22.06289,-11.10147 -47.00264,-22.45471 -72.04751,-13.47048 -35.40099,11.96511 -68.94087,33.89367 -89.79875,64.62524 -20.4837,30.30151 -19.66723,73.59318 14.21084,84.32124 34.18553,36.36514 100.50247,-51.84279 131.17367,-33.29435 29.22339,9.02375 51.34892,57.71286 24.47813,108.50248 -14.42406,34.98559 -54.57021,52.16973 -89.16331,64.91007 -32.52295,7.34579 -67.76726,-1.45788 -98.55891,13.8969 z"
       id="path2822"
       sodipodi:nodetypes="ccccccccccccccccccccc" />
    <path
       sodipodi:type="arc"
       style="fill:#000000;stroke-width:0.1;stroke-miterlimit:4;stroke-dasharray:none"
       id="path3644"
       sodipodi:cx="201"
       sodipodi:cy="340.36218"
       sodipodi:rx="23"
       sodipodi:ry="22"
       d="m 224,340.36218 a 23,22 0 1 1 -46,0 23,22 0 1 1 46,0 z"
       transform="translate(-10,0)" />
    <image
       sodipodi:absref="/Applications/Inkscape.app/inkscape_pasted_image_20101126_123107.png"
       y="316.36218"
       x="211"
       id="image3671"
       height="44"
       width="46"
       xlink:href="/Applications/Inkscape.app/inkscape_pasted_image_20101126_123107.png" />
    <path
       sodipodi:type="arc"
       style="fill:#ffffff;stroke-width:0.1;stroke-miterlimit:4;stroke-dasharray:none"
       id="path3677"
       sodipodi:cx="239"
       sodipodi:cy="340.36218"
       sodipodi:rx="7"
       sodipodi:ry="8"
       d="m 246,340.36218 a 7,8 0 1 1 -14,0 7,8 0 1 1 14,0 z" />
    <image
       sodipodi:absref="/Applications/Inkscape.app/inkscape_pasted_image_20101126_123201.png"
       y="352.36218"
       x="143"
       id="image3742"
       height="16"
       width="14"
       xlink:href="/Applications/Inkscape.app/inkscape_pasted_image_20101126_123201.png" />
    <path
       sodipodi:type="arc"
       style="fill:#ffffff;stroke-width:0.1;stroke-miterlimit:4;stroke-dasharray:none"
       id="path3746"
       sodipodi:cx="121"
       sodipodi:cy="370.36218"
       sodipodi:rx="7"
       sodipodi:ry="6"
       d="m 128,370.36218 a 7,6 0 1 1 -14,0 7,6 0 1 1 14,0 z"
       transform="translate(68,-16)" />
    <path
       style="fill:#241c1c;stroke-width:0;stroke-miterlimit:4;stroke-dasharray:none;opacity:1;stroke:#000000;marker-mid:none;stroke-opacity:1"
       d="m 581.25718,570.34448 c -48.26612,-1.35058 -48.13588,-1.32466 -83,-16.51694 -31.82096,-13.86622 -44.98114,-17.72618 -68.50112,-20.09188 -33.91056,-3.4108 -51.33412,-0.51106 -140.49888,23.38276 -46.3351,12.4166 -127.2959,14.69468 -152.21449,4.28304 -19.95952,-8.33962 -24.83012,-41.4599 -8.78449,-59.73488 8.32601,-9.4828 21.8911,-13.27922 54.99898,-15.39244 40.42715,-2.58038 45.69077,-3.4345 62.68219,-10.17142 42.63509,-16.90436 61.61699,-32.26076 75.72523,-61.26196 8.80468,-18.09904 9.32132,-20.10548 10.18658,-39.56057 1.0741,-24.15096 -2.0212,-36.66744 -12.70624,-51.38029 -7.94344,-10.93777 -22.9406,-19.53772 -34.07118,-19.53772 -4.02402,0 -12.44077,2.29968 -18.70389,5.11041 -10.84552,4.86718 -11.34343,5.41075 -10.46134,11.42076 l 0.92616,6.31035 -6.4422,-5.42076 c -8.95896,-7.53847 -23.18323,-7.64653 -31.98186,-0.24297 l -6.15345,5.17779 -0.23663,-5.67779 -0.23663,-5.67779 -1.52674,6 c -0.8397,3.3 -1.63322,5.01947 -1.76337,3.82103 -0.38012,-3.50034 -9.71603,-6.82103 -19.17689,-6.82103 -7.10645,0 -9.90911,1.15707 -14.90589,6.15385 -3.38462,3.38461 -6.15385,7.73461 -6.15385,9.66666 0,5.44518 -2.03501,6.2641 -7.95668,3.20189 -22.15,-11.45421 -27.88384,-41.0193 -13.71426,-70.71422 4.69138,-9.83164 10.83956,-17.74914 23.53523,-30.30818 18.47552,-18.27669 23.28926,-36.08009 49.42756,-47.47351 30.44399,-13.27023 55.08333,-1.33982 97.34005,20.33475 60.09774,30.82569 108.20594,67.15086 143.35362,108.24235 14.75694,17.25246 17.14902,21.18302 21.104,34.67719 6.09328,20.78979 8.79812,26.0584 15.03356,29.28287 4.8722,2.51951 6.91384,2.14686 23.11062,-4.21822 39.64482,-15.57979 62.7663,-16.46492 62.7663,-2.4028 0,9.01017 -15.6357,30.96641 -41.29184,57.98355 -11.09608,11.6847 -16.70816,21.80506 -16.70816,30.13008 0,4.49656 1.03266,4.81906 25.70938,8.02924 32.6365,4.24566 51.4387,10.4923 98.27584,32.65008 24.65296,11.66286 35.119,25.42178 33.56768,44.12884 -1.5645,18.86576 -11.69724,24.92028 -40.5529,24.23118 -8.8,-0.21016 -35.8,-0.93614 -60,-1.6133 z"
       id="path3748"
       sodipodi:nodetypes="cssssssssssssccccccccssssssssssssssssssssc" />
    <path
       style="fill:#808000;stroke-width:0.1;stroke-miterlimit:4;stroke-dasharray:none"
       d=""
       id="path3750" />
    <path
       style="fill:#808000;stroke-width:0.1;stroke-miterlimit:4;stroke-dasharray:none"
       d=""
       id="path3752" />
    <path
       style="fill:#808000;stroke:none;stroke-width:1;marker-start:none"
       d="m 518.24499,558.52027 c -83.12189,-46.31237 -82.94447,-45.7969 -124.5733,-37.92999 -50.78214,12.75282 -92.22243,33.48336 -146.954,42.65235 -30.93692,-0.4687 -72.30078,5.15001 -102.86684,0.19194 -28.49151,-10.78441 -27.32484,-51.70028 -6.67591,-69.6462 14.5081,-24.84229 45.9737,-47.88785 75.28826,-33.97771 23.31919,15.95208 58.70429,20.97127 79.94029,-1.00665 38.43854,-27.62674 55.40231,-89.0571 24.31272,-127.8924 -22.07567,-22.46039 -53.24012,-9.49677 -77.69323,-0.64231 -37.66578,32.95145 -53.40184,-16.29981 -74.95502,0.50556 -32.56892,-5.68569 -27.8255,-38.98886 -16.008,-61.17617 15.73815,-29.62494 41.70672,-52.34826 67.19099,-73.33925 25.32331,-15.36372 58.75033,-10.72537 81.68961,6.86089 63.95133,33.17511 120.65869,61.50658 163.64543,120.47696 23.78258,19.00355 19.8456,80.23565 50.40021,61.72444 18.36646,-14.01739 90.13128,-33.39904 62.83223,-0.15915 -5.95578,27.60133 -68.81886,52.91951 -51.42386,83.93434 23.59399,13.00606 53.13612,1.55967 79.39092,16.7541 22.54359,17.17307 70.59606,26.30118 77.50734,54.31934 2.2799,35.3931 -43.51981,31.52057 -67.82442,26.94618 -17.39382,-0.69238 -70.19391,2.64775 -93.22342,-8.59627 z"
       id="path3754"
       sodipodi:nodetypes="ccccccccccccccccccccc" />
    <path
       style="fill:#000000;stroke-width:0.1;stroke-miterlimit:4;stroke-dasharray:none"
       id="path3774"
       d="m 201.0941,326.23079 c -0.7924,-0.5308 -1.63908,-0.98839 -2.37721,-1.59239 -6.6473,-5.43946 -3.78355,-4.42272 -12.6107,-10.02073 -13.02011,-8.2571 -27.26104,-14.34329 -41.31839,-20.54008 -18.59949,-6.96152 -9.54967,-3.71291 -27.13331,-9.79072 0,0 2.09047,-1.41501 2.09047,-1.41501 l 0,0 c 18.25286,5.55855 8.92419,2.49727 27.96201,9.25663 14.00489,6.36693 28.28871,12.37361 41.33627,20.61699 2.78091,1.75697 5.34022,3.84244 7.99765,5.78111 4.57096,3.33465 4.15458,3.03735 7.48035,5.60405 0,0 -3.42714,2.10015 -3.42714,2.10015 z" />
    <path
       style="fill:#000000;stroke-width:0.1;stroke-miterlimit:4;stroke-dasharray:none"
       id="path3776"
       d="m 217.519,323.64303 c 3.38915,-7.05367 8.65352,-12.4333 14.39675,-17.70251 4.06908,-3.73324 8.28519,-7.31164 12.6228,-10.72918 14.74159,-11.61468 15.99057,-11.5746 32.79931,-21.58973 24.38141,-13.52719 50.66224,-22.9546 77.3671,-30.68483 9.35696,-2.70855 18.78802,-5.15497 28.16126,-7.80663 0,0 -2.84732,2.18337 -2.84732,2.18337 l 0,0 c -9.15601,2.43009 -18.36559,4.66656 -27.46842,7.28886 -25.06005,7.21919 -49.67127,16.30348 -72.93389,28.13981 -5.76857,3.48 -11.67281,6.74444 -17.30572,10.44 -12.91094,8.47044 -25.45845,18.13067 -35.43462,30.02837 -2.71608,3.23924 -3.75762,5.33427 -5.60178,8.6488 0,0 -3.75547,1.78367 -3.75547,1.78367 z" />
    <path
       style="fill:#000000;stroke-width:0.1;stroke-miterlimit:4;stroke-dasharray:none"
       d="m 249.01553,475.35319 c 6.78122,1.86199 10.87685,8.56018 17.6526,10.43384 12.31109,5.45178 25.89885,8.38422 39.38534,7.38405 -4.08496,1.75718 -8.58303,0.52734 -12.85508,0.69341 -16.13801,-1.4554 -32.05292,-7.62355 -44.18286,-18.5113 z"
       id="path3814" />
    <path
       style="fill:none;stroke:#000000;stroke-width:1px;stroke-linecap:butt;stroke-linejoin:miter;stroke-opacity:1"
       d="m 330.92597,370.71125 c 0,0 -19.70753,66.85135 -43.84061,60.81119 -35.4487,-8.8723 -69.29647,25.45583 -69.29647,25.45583 l -1.41421,1.41422"
       id="path3824"
       sodipodi:nodetypes="cscc" />
    <path
       style="fill:#c83737;stroke-width:0.1;stroke-miterlimit:4;stroke-dasharray:none"
       d="m 216.07368,459.99857 c 16.23464,-16.51113 36.38633,-30.73264 59.85335,-30.58008 20.11704,6.00598 27.3301,-2.15982 35.1679,-13.43855 6.90422,-9.85346 11.13598,-18.90696 20.9251,-43.98228 1.49214,3.82984 -1.37883,26.06104 -5.54404,31.64379 -15.08506,42.84609 -36.44792,55.21012 -65.23589,67.09327 -6.34618,3.18149 -16.2542,4.60186 -23.32502,0.95002 -3.65667,-1.65457 -26.21692,-7.45343 -21.8414,-11.68617 z"
       id="path3826"
       sodipodi:nodetypes="cccccccc" />
    <path
       style="fill:#000000;stroke-width:0.10000000000000001;stroke-miterlimit:4"
       d="m 378.16826,290.10985 c -9.7617,1.53951 -14.91922,9.1206 -11.54821,14.92605 3.98635,9.01067 15.43271,16.95284 30.10434,18.96784 5.9094,0.0283 9.41071,-4.34918 8.21819,-7.68621 -1.94647,-6.53253 -5.05501,-13.02883 -10.37057,-18.7908 -3.18138,-3.26114 -7.59117,-6.63479 -13.81626,-7.39515 -0.85545,-0.0849 -1.7318,-0.13083 -2.58749,-0.0217 z"
       id="path3828" />
    <path
       style="fill:#000000;stroke-width:0.10000000000000001;stroke-miterlimit:4"
       d="m 367.05674,437.68633 c -13.64004,0.28542 -26.08012,4.96033 -35.68492,10.87068 -7.45274,4.45637 -14.38319,9.88745 -16.17702,16.47335 -0.87216,4.40537 4.89991,8.49527 11.56848,9.15983 10.08939,1.74271 20.73689,-0.15888 29.87383,-2.99279 11.21176,-3.62631 21.12957,-9.73312 24.563,-17.6206 1.85036,-4.16717 2.22488,-9.02414 -1.56617,-12.8062 -2.88416,-2.41528 -7.98495,-3.33512 -12.5772,-3.08427 z"
       id="path3830" />
    <path
       style="fill:#000000;stroke-width:0.10000000000000001;stroke-miterlimit:4"
       d="m 422.96521,388.41682 c 24.44332,7.35951 46.99523,25.10097 57.98647,50.40953 2.36321,5.26298 3.40604,12.85489 -1.24041,17.03859 -5.47886,4.25013 -12.88635,1.35114 -17.52447,-2.98985 -19.40587,-13.94759 -37.42754,-31.73231 -47.59551,-54.88828 -1.65984,-5.32868 3.74572,-10.25847 8.37392,-9.56999 z"
       id="path3832" />
    <path
       sodipodi:type="arc"
       style="fill:#000000;stroke:none"
       id="path3862"
       sodipodi:cx="184.55487"
       sodipodi:cy="528.39606"
       sodipodi:rx="13.435029"
       sodipodi:ry="6.3639612"
       d="m 197.9899,528.39606 a 13.435029,6.3639612 0 1 1 -26.87006,0 13.435029,6.3639612 0 1 1 26.87006,0 z" />
    <path
       sodipodi:type="arc"
       style="fill:#000000;stroke:none"
       id="path3866"
       sodipodi:cx="551.54327"
       sodipodi:cy="525.56763"
       sodipodi:rx="21.213203"
       sodipodi:ry="12.020815"
       d="m 572.75648,525.56763 a 21.213203,12.020815 0 1 1 -42.42641,0 21.213203,12.020815 0 1 1 42.42641,0 z" />
    <path
       sodipodi:type="arc"
       style="fill:#000000;stroke:none"
       id="path3868"
       sodipodi:cx="233.34525"
       sodipodi:cy="225.04724"
       sodipodi:rx="12.727922"
       sodipodi:ry="8.485281"
       d="m 246.07317,225.04724 a 12.727922,8.485281 0 1 1 -25.45585,0 12.727922,8.485281 0 1 1 25.45585,0 z" />
  </g>
</svg>
